<?xml version="1.0" encoding="UTF-8"?>
<svg version="1.1" xmlns="http://www.w3.org/2000/svg" width="42" height="42">
<path d="M0 0 C2.1875 0.625 2.1875 0.625 5 2 C6.72713624 2.44544811 8.4565173 2.88224137 10.1875 3.3125 C14.78013706 4.63638052 14.78013706 4.63638052 16.625 7.6875 C16.74875 8.450625 16.8725 9.21375 17 10 C15.875 3.25 15.875 3.25 17 1 C19.475 1.495 19.475 1.495 22 2 C21.91253716 3.43861294 21.80434652 4.87597508 21.6875 6.3125 C21.60048828 7.51326172 21.60048828 7.51326172 21.51171875 8.73828125 C20.91161175 11.39066259 20.14291033 12.36503879 18 14 C17.34 14 16.68 14 16 14 C16.0825 14.99 16.165 15.98 16.25 17 C16.19084276 22.88022978 13.78991466 27.01640055 9.90625 31.3203125 C5.54218902 35.49526417 5.54218902 35.49526417 3 37 C-0.58757629 36.79773309 -1.72800714 36.24409616 -4.4375 33.8125 C-5.283125 33.214375 -6.12875 32.61625 -7 32 C-10.09575344 32.67079974 -10.09575344 32.67079974 -13 34 C-14.32 34 -15.64 34 -17 34 C-17.625 32.125 -17.625 32.125 -18 30 C-17.34 29.34 -16.68 28.68 -16 28 C-13.73725212 28.35355436 -12.04911148 28.97544426 -10 30 C-10.33 28.68 -10.66 27.36 -11 26 C-11.763125 26.061875 -12.52625 26.12375 -13.3125 26.1875 C-16 26 -16 26 -17.75 25 C-19.72884931 21.83384111 -19.69696193 18.69706448 -20 15 C-18.68 14.67 -17.36 14.34 -16 14 C-15.15545644 17.37817425 -14.89155081 19.67465243 -16 23 C-15.01 23 -14.02 23 -13 23 C-13.33 22.34 -13.66 21.68 -14 21 C-14.07181821 18.28239892 -14.09299506 15.59140612 -14.0625 12.875 C-14.05798828 12.12089844 -14.05347656 11.36679688 -14.04882812 10.58984375 C-14.03703499 8.72652873 -14.01909942 6.86325445 -14 5 C-13.11248047 4.83564453 -13.11248047 4.83564453 -12.20703125 4.66796875 C-6.9827821 3.62292204 -6.9827821 3.62292204 -2.25 1.25 C-1.5075 0.8375 -0.765 0.425 0 0 Z M-6.125 5.5 C-7.22070312 5.9640625 -8.31640625 6.428125 -9.4453125 6.90625 C-10.28835938 7.2671875 -11.13140625 7.628125 -12 8 C-12.39936219 16.38660593 -11.45940749 23.2198565 -6.1875 30 C-4.12469427 32.16950258 -2.85989159 33.06260163 -0.0625 34.3125 C4.56687298 33.840115 6.98789975 31.41625548 10 28 C14.0215721 21.43143224 14.14667949 15.48065378 14 8 C12.04350603 7.16235732 10.08474444 6.33000941 8.125 5.5 C7.03445312 5.0359375 5.94390625 4.571875 4.8203125 4.09375 C0.28232407 2.33386529 -1.72484705 3.62759449 -6.125 5.5 Z M19 3 C20 5 20 5 20 5 Z M-18 16 C-17 18 -17 18 -17 18 Z M-15 30 C-14 32 -14 32 -14 32 Z " fill="#B2A246" transform="translate(20,3)"/>
<path d="M0 0 C2.1875 0.625 2.1875 0.625 5 2 C6.72713624 2.44544811 8.4565173 2.88224137 10.1875 3.3125 C14.78013706 4.63638052 14.78013706 4.63638052 16.625 7.6875 C16.74875 8.450625 16.8725 9.21375 17 10 C15.875 3.25 15.875 3.25 17 1 C19.475 1.495 19.475 1.495 22 2 C21.80743982 10.19256018 21.80743982 10.19256018 18.4375 13.5625 C17.633125 14.036875 16.82875 14.51125 16 15 C15.34 14.67 14.68 14.34 14 14 C14 12.02 14 10.04 14 8 C12.700625 7.8453125 12.700625 7.8453125 11.375 7.6875 C8 7 8 7 5 5.3125 C2.05324454 3.67078178 2.05324454 3.67078178 -1.0625 4.6875 C-2.031875 5.120625 -3.00125 5.55375 -4 6 C-8.77777778 8 -8.77777778 8 -12 8 C-12 12.29 -12 16.58 -12 21 C-12.66 21 -13.32 21 -14 21 C-14 15.72 -14 10.44 -14 5 C-11.9271875 4.5978125 -11.9271875 4.5978125 -9.8125 4.1875 C-6.73547362 3.52779325 -4.94624986 2.96579536 -2.25 1.25 C-1.5075 0.8375 -0.765 0.425 0 0 Z M19 3 C20 5 20 5 20 5 Z " fill="#C7AC47" transform="translate(20,3)"/>
<path d="M0 0 C3 0.25 3 0.25 5 2.25 C5.125 4.875 5.125 4.875 5 7.25 C5.99 7.58 6.98 7.91 8 8.25 C8.4269252 11.67895476 8.60451035 14.83629451 8 18.25 C6.00707759 20.80733402 3.73516149 22.53354662 1 24.25 C-2.94237425 22.93587525 -5.64368827 21.7408322 -8 18.25 C-8.33279443 14.89036095 -8.2311279 11.61419502 -8 8.25 C-7.01 7.92 -6.02 7.59 -5 7.25 C-5.061875 6.074375 -5.061875 6.074375 -5.125 4.875 C-4.93732608 0.93384762 -3.8500613 0.32083844 0 0 Z M-1 2.25 C-1.66 2.91 -2.32 3.57 -3 4.25 C-2.67 5.24 -2.34 6.23 -2 7.25 C-0.35 7.25 1.3 7.25 3 7.25 C2.73323796 5.26508358 2.73323796 5.26508358 2 3.25 C1.01 2.92 0.02 2.59 -1 2.25 Z M-6 9.25 C-6.41831404 12.53999282 -6.41831404 12.53999282 -6 16.25 C-3.64581624 19.18973281 -3.64581624 19.18973281 -1 21.25 C2.65316671 20.00023244 3.78065836 19.57901247 6 16.25 C6.07905064 13.91800612 6.08798769 11.58167378 6 9.25 C2.04 9.25 -1.92 9.25 -6 9.25 Z " fill="#CEB248" transform="translate(21,9.75)"/>
<path d="M0 0 C2.0625 0.4375 2.0625 0.4375 4 1 C3.67 3.64 3.34 6.28 3 9 C3.99 9 4.98 9 6 9 C6.33 7.02 6.66 5.04 7 3 C7.33 3 7.66 3 8 3 C8.99 6.63 9.98 10.26 11 14 C10.34 14.66 9.68 15.32 9 16 C8.67 14.68 8.34 13.36 8 12 C7.236875 12.061875 6.47375 12.12375 5.6875 12.1875 C3 12 3 12 1.25 11 C-0.75486005 7.79222392 -0.75766832 4.75614105 -1 1 C-0.67 0.67 -0.34 0.34 0 0 Z M1 2 C2 4 2 4 2 4 Z " fill="#9A8A40" transform="translate(1,17)"/>
<path d="M0 0 C0.33 0 0.66 0 1 0 C1 2.64 1 5.28 1 8 C1.66 8 2.32 8 3 8 C4.37310707 9.29233607 5.71034824 10.62437146 7 12 C9.91517292 10.92598892 11.77810176 10.22189824 14 8 C14.33 8.99 14.66 9.98 15 11 C13.02 12.65 11.04 14.3 9 16 C5.05762575 14.68587525 2.35631173 13.4908322 0 10 C-0.33279443 6.64036095 -0.2311279 3.36419502 0 0 Z " fill="#A89643" transform="translate(13,18)"/>
<path d="M0 0 C2.45098556 0.39532025 4.63904279 1.21301426 7 2 C7 1.34 7 0.68 7 0 C10.16115776 1.36983503 10.9927092 1.9890638 13 5 C10.66666667 5 8.33333333 5 6 5 C3.66365343 5.31151288 1.32961443 5.64159778 -1 6 C-1.625 4.125 -1.625 4.125 -2 2 C-1.34 1.34 -0.68 0.68 0 0 Z M1 2 C2 4 2 4 2 4 Z " fill="#C4B149" transform="translate(4,31)"/>
<path d="M0 0 C1.65 0.33 3.3 0.66 5 1 C4.91291331 2.45945288 4.80473093 3.91765868 4.6875 5.375 C4.62949219 6.18710938 4.57148437 6.99921875 4.51171875 7.8359375 C4 10 4 10 1 12 C-0.1159921 8.65202371 -0.61762413 5.50511213 -1 2 C-0.67 1.34 -0.34 0.68 0 0 Z M2 2 C3 4 3 4 3 4 Z " fill="#B09D45" transform="translate(37,4)"/>
<path d="M0 0 C1.32 0.66 2.64 1.32 4 2 C3.42415568 4.38564077 2.77772405 6.66682784 2 9 C1.34 9 0.68 9 0 9 C-0.66 6.69 -1.32 4.38 -2 2 C-1.34 1.34 -0.68 0.68 0 0 Z " fill="#988840" transform="translate(20,20)"/>
<path d="M0 0 C0.66 0.33 1.32 0.66 2 1 C1.40546697 10.59453303 1.40546697 10.59453303 -2 14 C-3.25127906 10.45332822 -2.72285053 8.27746562 -1.5625 4.75 C-1.27503906 3.85796875 -0.98757812 2.9659375 -0.69140625 2.046875 C-0.46324219 1.37140625 -0.23507813 0.6959375 0 0 Z " fill="#A28F41" transform="translate(34,17)"/>
<path d="M0 0 C2.375 0.75 2.375 0.75 5 2 C5.928125 2.37125 6.85625 2.7425 7.8125 3.125 C8.534375 3.41375 9.25625 3.7025 10 4 C8.375 5.125 8.375 5.125 6 6 C2.44441261 5.1292439 0.05495026 4.03663351 -3 2 C-2.01 1.34 -1.02 0.68 0 0 Z " fill="#B7A145" transform="translate(20,3)"/>
<path d="M0 0 C1.98 0.495 1.98 0.495 4 1 C4 2.32 4 3.64 4 5 C3.34 5 2.68 5 2 5 C1.67 5.66 1.34 6.32 1 7 C1 6.34 1 5.68 1 5 C0.34 5 -0.32 5 -1 5 C-0.67 3.35 -0.34 1.7 0 0 Z M1 2 C2 4 2 4 2 4 Z " fill="#C1AE47" transform="translate(1,17)"/>
<path d="M0 0 C0.99 0.33 1.98 0.66 3 1 C2.34 1 1.68 1 1 1 C1 1.99 1 2.98 1 4 C1.99 4.33 2.98 4.66 4 5 C2.35 5.33 0.7 5.66 -1 6 C-1.625 4.125 -1.625 4.125 -2 2 C-1.34 1.34 -0.68 0.68 0 0 Z " fill="#A29342" transform="translate(4,31)"/>
<path d="M0 0 C2.4375 0.8125 2.4375 0.8125 5.4375 2.8125 C1.4775 2.8125 -2.4825 2.8125 -6.5625 2.8125 C-2.5625 -0.1875 -2.5625 -0.1875 0 0 Z " fill="#957B3C" transform="translate(21.5625,16.1875)"/>
<path d="M0 0 C0.66 0 1.32 0 2 0 C2 1.32 2 2.64 2 4 C2.66 4 3.32 4 4 4 C4 4.66 4 5.32 4 6 C3.01 6.33 2.02 6.66 1 7 C0 6 0 6 -0.0625 2.9375 C-0.041875 1.968125 -0.02125 0.99875 0 0 Z " fill="#DEBB4A" transform="translate(34,11)"/>
</svg>
